<svg width="30" height="30" viewBox="0 0 15 15" fill="none" xmlns="http://www.w3.org/2000/svg">
<g id="Group 7">
<path id="Vector" d="M10.75 7.5C10.75 9.29493 9.29493 10.75 7.5 10.75C5.70507 10.75 4.25 9.29493 4.25 7.5C4.25 5.70507 5.70507 4.25 7.5 4.25C9.29493 4.25 10.75 5.70507 10.75 7.5Z" stroke="white"/>
<path id="Vector_2" d="M14.25 7.75H13.5C13.4337 7.75 13.3701 7.72366 13.3232 7.67678C13.2763 7.62989 13.25 7.5663 13.25 7.5C13.25 7.4337 13.2763 7.37011 13.3232 7.32322C13.3701 7.27634 13.4337 7.25 13.5 7.25H14.25C14.3163 7.25 14.3799 7.27634 14.4268 7.32322C14.4737 7.37011 14.5 7.4337 14.5 7.5C14.5 7.5663 14.4737 7.62989 14.4268 7.67678C14.3799 7.72366 14.3163 7.75 14.25 7.75Z" stroke="white"/>
<path id="Vector_3" d="M1.5 7.75H0.75C0.683696 7.75 0.620108 7.72366 0.573223 7.67678C0.526339 7.62989 0.5 7.5663 0.5 7.5C0.5 7.4337 0.526339 7.37011 0.573223 7.32322C0.620108 7.27634 0.683696 7.25 0.75 7.25H1.5C1.5663 7.25 1.62989 7.27634 1.67678 7.32322C1.72366 7.37011 1.75 7.4337 1.75 7.5C1.75 7.5663 1.72366 7.62989 1.67678 7.67678C1.62989 7.72366 1.5663 7.75 1.5 7.75Z" stroke="white"/>
<path id="Vector_4" d="M12.136 2.55106L12.1497 2.5374L12.1623 2.52273C12.1847 2.49656 12.2122 2.47531 12.2433 2.4603C12.2743 2.4453 12.3081 2.43686 12.3425 2.43553C12.3769 2.4342 12.4113 2.44001 12.4433 2.45258C12.4754 2.46514 12.5046 2.48421 12.5289 2.50857C12.5533 2.53293 12.5723 2.56207 12.5849 2.59415C12.5975 2.62624 12.6033 2.66057 12.602 2.695C12.6006 2.72943 12.5922 2.76321 12.5772 2.79423C12.5622 2.82524 12.5409 2.85282 12.5148 2.87523L12.5001 2.8878L12.4864 2.90145L11.9549 3.43301C11.9548 3.43312 11.9547 3.43323 11.9545 3.43334C11.9301 3.45759 11.9009 3.47651 11.8687 3.48893C11.8365 3.50141 11.8019 3.50706 11.7674 3.50551L11.745 4.00501L11.7676 3.50552C11.706 3.50273 11.6476 3.47725 11.6036 3.43401C11.5577 3.38727 11.5319 3.32433 11.5319 3.25876C11.5319 3.19289 11.5579 3.1297 11.6042 3.0829L12.136 2.55106Z" stroke="white"/>
<path id="Vector_5" d="M2.75437 12.5206L2.74076 12.5199L2.72713 12.52C2.69424 12.5202 2.66162 12.5139 2.63116 12.5015C2.60124 12.4892 2.57398 12.4713 2.55089 12.4487C2.5051 12.402 2.47943 12.3392 2.47943 12.2737C2.47943 12.2101 2.50369 12.149 2.54711 12.1027L3.06099 11.625C3.10795 11.5872 3.16709 11.5675 3.22752 11.5698C3.29044 11.5723 3.35012 11.5984 3.39464 11.6429C3.43917 11.6874 3.46525 11.7471 3.46768 11.81C3.46993 11.8682 3.45179 11.9252 3.41665 11.9713L2.91854 12.4694C2.87172 12.5052 2.81358 12.5235 2.75437 12.5206Z" stroke="white"/>
<path id="Vector_6" d="M7.5 1.75C7.4337 1.75 7.37011 1.72366 7.32322 1.67678C7.27634 1.62989 7.25 1.5663 7.25 1.5V0.75C7.25 0.683696 7.27634 0.620108 7.32322 0.573223C7.37011 0.526339 7.4337 0.5 7.5 0.5C7.5663 0.5 7.62989 0.526339 7.67678 0.573223C7.72366 0.620108 7.75 0.683696 7.75 0.75V1.5C7.75 1.5663 7.72366 1.62989 7.67678 1.67678C7.62989 1.72366 7.5663 1.75 7.5 1.75Z" stroke="white"/>
<path id="Vector_7" d="M7.5 14.5C7.4337 14.5 7.37011 14.4737 7.32322 14.4268C7.27634 14.3799 7.25 14.3163 7.25 14.25V13.5C7.25 13.4337 7.27634 13.3701 7.32322 13.3232C7.37011 13.2763 7.4337 13.25 7.5 13.25C7.5663 13.25 7.62989 13.2763 7.67678 13.3232C7.72366 13.3701 7.75 13.4337 7.75 13.5V14.25C7.75 14.3163 7.72366 14.3799 7.67678 14.4268C7.62989 14.4737 7.5663 14.5 7.5 14.5Z" stroke="white"/>
<path id="Vector_8" d="M3.25788 3.505L3.2571 3.505C3.19177 3.50472 3.12915 3.47888 3.08263 3.43303L2.56837 2.91876C2.53323 2.87269 2.51509 2.8157 2.51734 2.7575C2.51977 2.69458 2.54585 2.6349 2.59037 2.59037C2.6349 2.54585 2.69458 2.51977 2.7575 2.51734C2.8157 2.51509 2.87269 2.53323 2.91876 2.56837L3.43328 3.08289C3.4796 3.12969 3.50559 3.19288 3.50559 3.25874C3.50559 3.3242 3.47992 3.38702 3.43413 3.43374C3.41104 3.45632 3.38378 3.47423 3.35386 3.48645C3.3234 3.49889 3.29079 3.50519 3.25788 3.505Z" stroke="white"/>
<path id="Vector_9" d="M12.2991 12.5208L12.2856 12.5201L12.2721 12.52C12.209 12.5197 12.1484 12.4956 12.1025 12.4527L11.6688 11.9862C11.6562 11.9493 11.6524 11.9098 11.6578 11.8708C11.6654 11.817 11.6902 11.7671 11.7286 11.7286C11.7671 11.6902 11.817 11.6654 11.8708 11.6578C11.9075 11.6527 11.9446 11.6558 11.9796 11.6667L12.4483 12.1354C12.4946 12.1822 12.5206 12.2454 12.5206 12.3112C12.5206 12.3707 12.4994 12.428 12.4612 12.473C12.4145 12.5072 12.3572 12.5242 12.2991 12.5208Z" stroke="white"/>
</g>
</svg>
