<svg width="17" height="16" viewBox="0 0 17 16" fill="none" xmlns="http://www.w3.org/2000/svg">
<path d="M8.48078 10.8078C8.32884 10.8078 8.18031 10.8529 8.05398 10.9373C7.92764 11.0217 7.82918 11.1417 7.77103 11.282C7.71289 11.4224 7.69768 11.5769 7.72732 11.7259C7.75696 11.8749 7.83013 12.0118 7.93756 12.1192C8.045 12.2267 8.18188 12.2998 8.3309 12.3295C8.47993 12.3591 8.63439 12.3439 8.77476 12.2858C8.91514 12.2276 9.03512 12.1292 9.11953 12.0028C9.20394 11.8765 9.249 11.728 9.249 11.576C9.249 11.3723 9.16806 11.1769 9.02399 11.0328C8.87992 10.8887 8.68452 10.8078 8.48078 10.8078ZM16.6777 11.9371L10.4935 1.18201C10.2936 0.823644 10.0017 0.525146 9.64785 0.317351C9.29401 0.109556 8.89112 0 8.48078 0C8.07044 0 7.66754 0.109556 7.3137 0.317351C6.95987 0.525146 6.66793 0.823644 6.46804 1.18201L0.322282 11.9371C0.115474 12.2859 0.00434881 12.683 0.000125067 13.0885C-0.00409868 13.494 0.0987289 13.8934 0.298226 14.2464C0.497723 14.5994 0.786828 14.8935 1.13635 15.0991C1.48588 15.3047 1.88345 15.4144 2.28893 15.4171H14.6726C15.0814 15.4211 15.4838 15.3164 15.8387 15.1136C16.1936 14.9108 16.4882 14.6173 16.6923 14.2631C16.8963 13.9089 17.0025 13.5069 17 13.0981C16.9974 12.6894 16.8862 12.2887 16.6777 11.9371ZM15.3487 13.4735C15.2813 13.5933 15.1831 13.6929 15.0642 13.7618C14.9453 13.8307 14.8101 13.8665 14.6726 13.8653H2.28893C2.1515 13.8665 2.01628 13.8307 1.89738 13.7618C1.77847 13.6929 1.68023 13.5933 1.61289 13.4735C1.54547 13.3567 1.50997 13.2243 1.50997 13.0894C1.50997 12.9546 1.54547 12.8221 1.61289 12.7053L7.75865 1.95023C7.82312 1.82439 7.92106 1.71879 8.0417 1.64505C8.16233 1.5713 8.30098 1.53228 8.44237 1.53228C8.58375 1.53228 8.7224 1.5713 8.84303 1.64505C8.96367 1.71879 9.06161 1.82439 9.12608 1.95023L15.3103 12.7053C15.3865 12.8204 15.4303 12.9539 15.437 13.0918C15.4438 13.2297 15.4133 13.3669 15.3487 13.4889V13.4735ZM8.48078 4.66204C8.27703 4.66204 8.08163 4.74298 7.93756 4.88705C7.79349 5.03112 7.71256 5.22652 7.71256 5.43026V8.50314C7.71256 8.70689 7.79349 8.90229 7.93756 9.04636C8.08163 9.19042 8.27703 9.27136 8.48078 9.27136C8.68452 9.27136 8.87992 9.19042 9.02399 9.04636C9.16806 8.90229 9.249 8.70689 9.249 8.50314V5.43026C9.249 5.22652 9.16806 5.03112 9.02399 4.88705C8.87992 4.74298 8.68452 4.66204 8.48078 4.66204Z" fill="white"/>
</svg>